mtllib test.mtl
# vertices
v -4.357894736844173 -5.263157894736651 0.48421052631601924
v -4.357894736844173 -5.263157894736651 6.884210526317474
v -4.357894736844173 -4.196491228070171 6.884210526317474
v -4.357894736844173 -4.196491228070171 0.48421052631582384
v 2.378947368419176 -4.19649122807017 6.884210526317474
v 2.3789473684203237 -5.2631578947366515 6.884210526317474
v 2.3789473684203237 -5.2631578947366515 0.4842105263160192
v 2.378947368419176 -4.19649122807017 0.4842105263158239
v -5.200000000001637 -4.196491228070954 0.48421052631601924
v -5.200000000001637 -4.196491228070954 6.884210526317474
v -5.200000000001637 1.6701754385966536 6.884210526317474
v -5.200000000001637 1.6701754385966536 0.48421052631582384
v -4.357894736844173 1.6701754385966536 6.884210526317474
v -4.357894736842854 -4.196491228070954 6.884210526317474
v -4.357894736842854 -4.196491228070954 0.48421052631601924
v -4.357894736844173 1.6701754385966536 0.48421052631582384
v -4.357894736844173 -4.196491228070954 -0.31578947368325316
v -4.357894736844173 -4.196491228070954 0.48421052631601924
v -4.357894736844173 1.6701754385966536 0.48421052631601924
v -4.357894736844173 1.6701754385966536 -0.31578947368416266
v 2.378947368419176 1.6701754385966538 0.48421052631601924
v 2.3789473684203237 -4.196491228070953 0.48421052631601924
v 2.3789473684203237 -4.196491228070953 -0.31578947368325333
v 2.378947368419176 1.6701754385966538 -0.3157894736841625
v -4.778947368421541 -4.196491228070954 6.884210526317474
v -4.778947368421541 -4.196491228070954 7.684210526314928
v -4.778947368421541 1.6701754385966536 7.684210526314928
v -4.778947368421541 1.6701754385966536 6.8842105263157585
v 1.957894736835442 1.6701754385966538 7.684210526314928
v 1.957894736841376 -4.196491228070953 7.684210526314928
v 1.957894736841376 -4.196491228070953 6.884210526317474
v 1.957894736835442 1.6701754385966538 6.8842105263157585
v -4.778947368421541 1.6701754385940148 0.48421052631601924
v -4.778947368421541 1.6701754385940148 6.884210526317474
v -4.778947368421541 2.7368421052633485 6.884210526317474
v -4.778947368421541 2.7368421052633485 0.48421052631582384
v 1.957894736835442 2.7368421052633485 6.884210526317474
v 1.957894736841376 1.6701754385940155 6.884210526317474
v 1.957894736841376 1.6701754385940155 0.4842105263160192
v 1.957894736835442 2.7368421052633485 0.4842105263158239
v 1.957894736842718 -4.196491228070954 0.48421052631601924
v 1.957894736842718 -4.196491228070954 6.884210526317474
v 1.957894736842718 1.6701754385966536 6.884210526317474
v 1.957894736842718 1.6701754385966536 0.48421052631582384
v 2.7999999999992724 1.6701754385966536 6.884210526317474
v 2.7999999999992724 -4.196491228070954 6.884210526317474
v 2.7999999999992724 -4.196491228070954 0.48421052631601924
v 2.7999999999992724 1.6701754385966536 0.48421052631582384

# texture coordinates
vt -3.5762787e-07 -4.5
vt -8 -4.5
vt -8 -3.5
vt -3.5762787e-07 -3.5
vt 1.9999998 -3.5
vt -6 -3.5
vt -6 -4.5
vt 1.9999998 -4.5
vt 1.9999998 -8
vt -6 -8
vt -6 -3.5762787e-07
vt 1.9999998 -3.5762787e-07
vt 0.5624999 0.03125
vt -1.4375 0.03125
vt -1.4375 -1.3437499
vt 0.5624999 -1.3437499
vt 1.0624999 -1.3437499
vt 1.3124999 -1.3437499
vt 1.3124999 0.03125
vt 1.0624999 0.03125
vt 1.0624999 -1.59375
vt 1.3124999 -1.59375
vt 1.3124999 0.4062499
vt 1.0624999 0.4062499
vt -1.0000001 -0.90625
vt -0.7500001 -0.90625
vt -0.7500001 0.4687499
vt -1.0000001 0.4687499
vt 1 0.4687499
vt -0.9999999 0.4687499
vt -0.9999999 -0.90625
vt 1 -0.90625
vt -0.7500001 0.78124976
vt -0.7500001 -1.2187501
vt -1.0000001 -1.2187501
vt -1.0000001 0.78124976
vt 2 -0.90625
vt 2.25 -0.90625
vt 2.25 0.4687499
vt 2 0.4687499
vt 0 0.4687499
vt -1.9999999 0.4687499
vt -1.9999999 -0.90625
vt 0 -0.90625
vt 2.25 -0
vt 2.25 -1.9999999
vt 2 -1.9999999
vt 2 -0
vt -3.5762787e-07 -2.15625
vt -8 -2.15625
vt -8 -3.1562498
vt -3.5762787e-07 -3.1562498
vt 1.9999996 -3.1562498
vt -6 -3.1562498
vt -6 -2.15625
vt 1.9999996 -2.15625
vt -8 2.2187495
vt -8 -5.78125
vt -3.5762787e-07 -5.78125
vt -3.5762787e-07 2.2187495
vt -8.940697e-08 0.25
vt -2 0.25
vt -2 -1.1249999
vt -8.940697e-08 -1.1249999
vt -1 -1.1249999
vt -0.75 -1.1249999
vt -0.75 0.25
vt -1 0.25
vt -1 -1.21875
vt -0.75 -1.21875
vt -0.75 0.78125
vt -1 0.78125

# normals
vn -1 0 -0
vn 0 0 1
vn 0 -1 -0
vn 0 1 -0
vn 0 0 -1
vn 1 0 -0

o entity0_brush0
usemtl test/grass
f  1/1/1  2/2/1  3/3/1  4/4/1
usemtl test/grass
f  5/5/2  3/6/2  2/7/2  6/8/2
usemtl test/grass
f  6/9/3  2/10/3  1/11/3  7/12/3
usemtl test/grass
f  8/12/4  4/11/4  3/10/4  5/9/4
usemtl test/grass
f  7/8/5  1/7/5  4/6/5  8/5/5
usemtl test/grass
f  8/4/6  5/3/6  6/2/6  7/1/6

o entity0_brush1
usemtl test/wall
f  9/13/1  10/14/1  11/15/1  12/16/1
usemtl test/wall
f  13/17/2  11/18/2  10/19/2  14/20/2
usemtl test/wall
f  14/21/3  10/22/3  9/23/3  15/24/3
usemtl test/wall
f  16/24/4  12/23/4  11/22/4  13/21/4
usemtl test/wall
f  15/20/5  9/19/5  12/18/5  16/17/5
usemtl test/wall
f  16/16/6  13/15/6  14/14/6  15/13/6

o entity0_brush2
usemtl test/wall
f  17/25/1  18/26/1  19/27/1  20/28/1
usemtl test/wall
f  21/29/2  19/30/2  18/31/2  22/32/2
usemtl test/wall
f  22/33/3  18/34/3  17/35/3  23/36/3
usemtl test/wall
f  24/36/4  20/35/4  19/34/4  21/33/4
usemtl test/wall
f  23/32/5  17/31/5  20/30/5  24/29/5
usemtl test/wall
f  24/28/6  21/27/6  22/26/6  23/25/6

o entity0_brush3
usemtl test/wall
f  25/37/1  26/38/1  27/39/1  28/40/1
usemtl test/wall
f  29/41/2  27/42/2  26/43/2  30/44/2
usemtl test/wall
f  30/45/3  26/46/3  25/47/3  31/48/3
usemtl test/wall
f  32/48/4  28/47/4  27/46/4  29/45/4
usemtl test/wall
f  31/44/5  25/43/5  28/42/5  32/41/5
usemtl test/wall
f  32/40/6  29/39/6  30/38/6  31/37/6

o entity0_brush4
usemtl test/wall
f  33/49/1  34/50/1  35/51/1  36/52/1
usemtl test/wall
f  37/53/2  35/54/2  34/55/2  38/56/2
usemtl test/wall
f  38/57/3  34/58/3  33/59/3  39/60/3
usemtl test/wall
f  40/60/4  36/59/4  35/58/4  37/57/4
usemtl test/wall
f  39/56/5  33/55/5  36/54/5  40/53/5
usemtl test/wall
f  40/52/6  37/51/6  38/50/6  39/49/6

o entity0_brush5
usemtl test/wall
f  41/61/1  42/62/1  43/63/1  44/64/1
usemtl test/wall
f  45/65/2  43/66/2  42/67/2  46/68/2
usemtl test/wall
f  46/69/3  42/70/3  41/71/3  47/72/3
usemtl test/wall
f  48/72/4  44/71/4  43/70/4  45/69/4
usemtl test/wall
f  47/68/5  41/67/5  44/66/5  48/65/5
usemtl test/wall
f  48/64/6  45/63/6  46/62/6  47/61/6

